<svg width="80" height="80" viewBox="0 0 80 80" fill="none" xmlns="http://www.w3.org/2000/svg">
<path d="M36.9931 28.0586C40.5444 28.2953 43.9379 29.2423 47.0157 30.6629C49.7778 28.5321 52.9345 26.1645 56.7226 23.3235C50.567 20.1668 43.7011 18.6673 36.9931 19.0619C27.0495 19.6143 17.6582 24.1916 11.4237 31.2942C6.21514 37.0552 3.13734 44.4735 2.506 51.8918C2.42708 52.7599 3.13734 53.549 4.00544 53.549C4.7157 53.549 5.34704 52.9966 5.50488 52.3653C6.9254 45.7362 10.4767 39.6595 15.4485 35.3979C21.4463 30.0315 29.417 27.5061 36.9931 28.0586Z" fill="#6C63FF"/>
<path d="M66.5085 30.584C63.4307 34.6088 60.8264 38.0812 58.6167 41.0011C60.7475 44.4735 62.0102 48.3405 62.4048 52.2075C62.4837 52.9177 63.115 53.5491 63.9042 53.5491H75.9786C76.9256 53.5491 77.6359 52.681 77.4781 51.734C75.9786 43.6844 72.1117 36.1872 66.5085 30.584Z" fill="#6C63FF"/>
<path d="M64.9299 25.0597C65.5612 24.1916 64.5353 23.1657 63.6672 23.797C57.117 28.7688 45.6739 37.3709 39.2027 42.4216C38.4924 42.2638 37.7821 42.1059 36.993 42.1059C31.7055 42.1849 27.365 46.5253 27.365 51.8128C27.365 57.1003 31.6266 61.4408 36.993 61.4408C42.3594 61.4408 46.621 57.1793 46.621 51.8128C46.621 51.0237 46.542 50.3134 46.3053 49.6031C51.356 43.053 59.9581 31.6888 64.9299 25.0597Z" fill="#6C63FF"/>
</svg>
